<svg xmlns="http://www.w3.org/2000/svg" xmlns:xlink="http://www.w3.org/1999/xlink" width="512" height="512" viewBox="0 0 512 512">
  <defs>
    <clipPath id="clip-csi_list1">
      <rect width="512" height="512"/>
    </clipPath>
  </defs>
  <g id="csi_list1" clip-path="url(#clip-csi_list1)">
    <path id="Icon_simple-circleci" data-name="Icon simple-circleci" d="M298.375,250c0-33-25.767-59.479-57.293-59.479-31.546,0-57.313,26.75-57.313,59.479,0,32.75,25.767,59.5,57.313,59.5C272.588,309.5,298.375,282.75,298.375,250ZM241.082,0C353.521,0,447.7,80,474.428,188.021a9.366,9.366,0,0,1,.2,2.5,11.773,11.773,0,0,1-11.539,12H366.063a11.058,11.058,0,0,1-10.375-6.937c-20.007-45-63.815-76.5-114.626-76.5-69.554,0-126.145,58.75-126.145,130.979,0,72.292,56.591,131.042,126.226,131.042,50.771,0,94.6-31.25,114.586-76.521,1.947-3.958,5.82-7,10.375-7H463.09a11.783,11.783,0,0,1,11.539,12c0,.771-.281,1.5-.281,2.5C447.859,420,353.541,500,241.082,500,108.154,500,.27,388.021.27,250,.27,112.021,108.154,0,241.082,0Z" transform="translate(18.73 6)"/>
  </g>
</svg>
