<svg xmlns="http://www.w3.org/2000/svg" xmlns:xlink="http://www.w3.org/1999/xlink" width="512" height="512" viewBox="0 0 512 512">
  <defs>
    <clipPath id="clip-down">
      <rect width="512" height="512"/>
    </clipPath>
  </defs>
  <g id="down" clip-path="url(#clip-down)">
    <path id="Icon_awesome-angle-double-down" data-name="Icon awesome-angle-double-down" d="M223.442,172.574,11.009,57.679c-14.683-7.941-14.683-20.783,0-28.639L46.31,9.946C60.993,2,84.736,2,99.262,9.946L249.84,91.387,400.418,9.946C415.1,2,438.844,2,453.37,9.946l35.614,19.008c14.683,7.941,14.683,20.783,0,28.639L276.551,172.49C261.868,180.515,238.125,180.515,223.442,172.574Zm53.108,162.205,212.434-114.9c14.683-7.941,14.683-20.783,0-28.639l-35.3-19.093c-14.683-7.941-38.425-7.941-52.952,0L250,253.508,99.419,172.067c-14.683-7.941-38.425-7.941-52.952,0L11.009,191.16c-14.683,7.941-14.683,20.783,0,28.639l212.434,114.9C238.125,342.721,261.868,342.721,276.551,334.779Z" transform="translate(6.004 84.01)"/>
  </g>
</svg>
