<svg xmlns="http://www.w3.org/2000/svg" xmlns:xlink="http://www.w3.org/1999/xlink" width="512" height="512" viewBox="0 0 512 512">
  <defs>
    <clipPath id="clip-up">
      <rect width="512" height="512"/>
    </clipPath>
  </defs>
  <g id="up" clip-path="url(#clip-up)">
    <path id="Icon_awesome-angle-double-down" data-name="Icon awesome-angle-double-down" d="M223.442,172.141,11.009,287.037c-14.683,7.941-14.683,20.783,0,28.639l35.3,19.093c14.683,7.941,38.425,7.941,52.952,0L249.84,253.328l150.578,81.441c14.683,7.941,38.425,7.941,52.952,0l35.614-19.008c14.683-7.941,14.683-20.783,0-28.639l-212.434-114.9C261.868,164.2,238.125,164.2,223.442,172.141ZM276.551,9.936l212.434,114.9c14.683,7.941,14.683,20.783,0,28.639l-35.3,19.093c-14.683,7.941-38.425,7.941-52.952,0L250,91.207,99.419,172.648c-14.683,7.941-38.425,7.941-52.952,0L11.009,153.555c-14.683-7.941-14.683-20.783,0-28.639L223.442,10.02C238.125,1.994,261.868,1.994,276.551,9.936Z" transform="translate(6.004 84.01)"/>
  </g>
</svg>
